# xmcd CD database file
#
# Track frame offsets:
#	150
#	18421
#	40754
#	59529
#	73780
#	88494
#	104150
#	123563
#	143165
#	157990
#	178787
#	196159
#	214552
#
# Disc length: 3122 seconds
#
# Revision: 0
# Processed by: cddbd v1.5.2PL0 Copyright (c) Steve Scherf et al.
# Submitted via: CDex 1.81
#
DISCID=c10c300d
DTITLE=Candy Dulfer - Funked Up! [Bonus Track]
DYEAR=2009
DGENRE=Jazz
TTITLE0=First In Line
TTITLE1=My Funk
TTITLE2=Still I Love You
TTITLE3=Step Up
TTITLE4=Don't Go
TTITLE5=CD 101.9
TTITLE6=Bliss 2 This
TTITLE7=Finger Poppin'
TTITLE8=Be Cool
TTITLE9=On and On
TTITLE10=True and Tender
TTITLE11=Roppongi Panic
TTITLE12=Cruise Control
EXTD=YEAR: 2009
EXTT0=
EXTT1=
EXTT2=
EXTT3=
EXTT4=
EXTT5=
EXTT6=
EXTT7=
EXTT8=
EXTT9=
EXTT10=
EXTT11=
EXTT12=
PLAYORDER=
